<svg viewBox="0 0 16 16" fill="#43505a" xmlns="http://www.w3.org/2000/svg">
	<path d="M8 15.9713C9.32441 15.9705 10.6278 15.64 11.7925 15.0095C12.9572 14.3789 13.9465 13.4683 14.6711 12.3597C15.3958 11.2511 15.833 9.97955 15.9432 8.65974C16.0535 7.33993 15.8333 6.01344 15.3026 4.80001C15.2593 4.70129 15.1971 4.61204 15.1193 4.53737C15.0416 4.46271 14.95 4.40408 14.8496 4.36484C14.7492 4.3256 14.6421 4.30652 14.5343 4.30868C14.4265 4.31085 14.3203 4.33421 14.2215 4.37745C14.1228 4.42068 14.0336 4.48294 13.9589 4.56067C13.8842 4.63839 13.8256 4.73006 13.7864 4.83045C13.7471 4.93083 13.728 5.03796 13.7302 5.14571C13.7324 5.25347 13.7557 5.35975 13.799 5.45847C14.3998 6.82909 14.4954 8.36828 14.0689 9.80273C13.6424 11.2372 12.7213 12.474 11.4692 13.2937C10.2171 14.1134 8.71503 14.4628 7.22973 14.2799C5.74443 14.0969 4.37201 13.3936 3.35618 12.2946C2.34035 11.1957 1.74685 9.77233 1.68107 8.27725C1.61529 6.78218 2.08149 5.31217 2.99687 4.12827C3.91226 2.94436 5.2176 2.12317 6.68109 1.81053C8.14459 1.49788 9.67153 1.714 10.9908 2.42053C11.0856 2.48489 11.193 2.52866 11.3058 2.549C11.4186 2.56935 11.5345 2.56583 11.6458 2.53866C11.7572 2.51149 11.8617 2.46129 11.9525 2.39127C12.0433 2.32126 12.1184 2.233 12.173 2.13218C12.2275 2.03136 12.2604 1.92022 12.2694 1.80593C12.2784 1.69163 12.2633 1.57672 12.2252 1.4686C12.1871 1.36048 12.1267 1.26155 12.048 1.17819C11.9693 1.09483 11.874 1.02889 11.7682 0.984628C10.7001 0.408345 9.51441 0.0835837 8.30168 0.0351086C7.08895 -0.0133665 5.88117 0.215725 4.77043 0.704913C3.65968 1.1941 2.67531 1.93047 1.89237 2.85787C1.10943 3.78526 0.548604 4.8792 0.252648 6.05625C-0.0433085 7.23331 -0.0665758 8.46241 0.18462 9.64983C0.435816 10.8372 0.954841 11.9516 1.70212 12.908C2.4494 13.8643 3.40519 14.6374 4.49663 15.1683C5.58806 15.6992 6.78631 15.9738 8 15.9713Z" />
	<path d="M4.66257 5.58152C4.58458 5.50704 4.49269 5.44865 4.39214 5.40968C4.29158 5.37071 4.18434 5.35192 4.07653 5.3544C3.96872 5.35688 3.86245 5.38056 3.76379 5.42411C3.66514 5.46765 3.57602 5.53021 3.50154 5.60819C3.42706 5.68618 3.36866 5.77807 3.32969 5.87862C3.29072 5.97917 3.27194 6.08641 3.27442 6.19423C3.27689 6.30204 3.30058 6.40831 3.34413 6.50696C3.38767 6.60562 3.45022 6.69473 3.52821 6.76922L7.13846 10.2215C7.29089 10.3674 7.49364 10.4489 7.70462 10.4492H7.73539C7.84501 10.445 7.95269 10.4189 8.05204 10.3724C8.1514 10.3259 8.24043 10.26 8.31385 10.1784L15.2533 2.46152C15.3989 2.29967 15.4741 2.08664 15.4626 1.86929C15.4511 1.65194 15.3536 1.44808 15.1918 1.30255C15.0299 1.15702 14.8169 1.08175 14.5996 1.09329C14.3822 1.10483 14.1784 1.20224 14.0328 1.36409L7.66154 8.44922L4.66257 5.58152Z" />
</svg>
